<svg width="21" height="20" viewBox="0 0 21 20" fill="none" xmlns="http://www.w3.org/2000/svg">
<path d="M10.5003 2.5C15.0837 2.5 18.8337 5.48333 18.8337 9.16667C18.8337 12.85 15.0837 15.8333 10.5003 15.8333C9.46699 15.8333 8.47533 15.6833 7.55866 15.4167C5.12533 17.5 2.16699 17.5 2.16699 17.5C4.10866 15.5583 4.41699 14.25 4.45866 13.75C3.04199 12.5583 2.16699 10.9417 2.16699 9.16667C2.16699 5.48333 5.91699 2.5 10.5003 2.5ZM14.667 10V8.33333H13.0003V10H14.667ZM11.3337 10V8.33333H9.66699V10H11.3337ZM8.00033 10V8.33333H6.33366V10H8.00033Z" fill="white"/>
</svg>
