<svg width="24" height="24" viewBox="0 0 24 24" fill="none" xmlns="http://www.w3.org/2000/svg">
<path d="M19.344 3.9475C18.848 3.49053 16.8404 2.03368 12.3644 2.01415C12.3644 2.01415 7.08772 1.69778 4.51773 4.05686C3.08822 5.48637 2.58438 7.58376 2.5297 10.1811C2.47502 12.7784 2.40862 17.645 7.09944 18.9651H7.10335L7.09944 20.9805C7.09944 20.9805 7.06819 21.7968 7.60719 21.9609C8.25554 22.164 8.63831 21.5429 9.25932 20.8751C9.59913 20.5079 10.0678 19.9689 10.4232 19.5588C13.6338 19.8283 16.0983 19.2112 16.3795 19.1214C17.0279 18.9105 20.6954 18.4418 21.2891 13.5752C21.9062 8.55239 20.9922 5.38091 19.344 3.9475ZM19.8869 13.2081C19.3831 17.27 16.4108 17.5278 15.864 17.7036C15.6296 17.7778 13.4619 18.3168 10.7396 18.141C10.7396 18.141 8.70861 20.5899 8.07588 21.2266C7.86887 21.4336 7.64234 21.4141 7.64625 21.004C7.64625 20.7345 7.66187 17.6567 7.66187 17.6567C7.65796 17.6567 7.65796 17.6567 7.66187 17.6567C3.68581 16.5553 3.92015 12.4113 3.96311 10.2436C4.00608 8.07589 4.41618 6.29877 5.62697 5.10361C7.80248 3.1312 12.2824 3.42413 12.2824 3.42413C16.0671 3.43975 17.8793 4.58023 18.3012 4.963C19.6955 6.15816 20.4064 9.01718 19.8869 13.2081ZM14.4579 10.0522C14.4735 10.3881 13.9697 10.4115 13.954 10.0756C13.9111 9.21637 13.5088 8.79845 12.6808 8.75159C12.3449 8.73206 12.3761 8.22821 12.7081 8.24774C13.7978 8.30633 14.4032 8.93125 14.4579 10.0522ZM15.2508 10.4936C15.2898 8.83751 14.2548 7.5408 12.2902 7.39629C11.9582 7.37285 11.9934 6.86901 12.3253 6.89244C14.5907 7.05649 15.7976 8.61488 15.7546 10.5053C15.7507 10.8412 15.2429 10.8255 15.2508 10.4936ZM17.0865 11.0169C17.0904 11.3528 16.5826 11.3567 16.5826 11.0208C16.5592 7.83764 14.4384 6.10348 11.8645 6.08395C11.5325 6.08005 11.5325 5.58011 11.8645 5.58011C14.743 5.59964 17.0591 7.58767 17.0865 11.0169ZM16.6451 14.8485V14.8563C16.2233 15.5984 15.4343 16.4186 14.6219 16.1569L14.6141 16.1452C13.79 15.9147 11.8488 14.9149 10.6224 13.9384C9.9897 13.4385 9.41165 12.8487 8.96639 12.2824C8.5641 11.7785 8.1579 11.181 7.76342 10.4623C6.93149 8.95859 6.74792 8.2868 6.74792 8.2868C6.48624 7.4744 7.30254 6.68544 8.04854 6.26362H8.05635C8.41568 6.07614 8.75939 6.13863 8.98983 6.41594C8.98983 6.41594 9.47414 6.99399 9.68115 7.27911C9.87643 7.54471 10.1381 7.97043 10.2748 8.20868C10.5131 8.63441 10.3647 9.06795 10.1303 9.24762L9.66162 9.62257C9.42337 9.81395 9.45461 10.1694 9.45461 10.1694C9.45461 10.1694 10.1498 12.798 12.7472 13.4619C12.7472 13.4619 13.1026 13.4932 13.294 13.2549L13.6689 12.7862C13.8486 12.5519 14.2821 12.4035 14.7079 12.6417C15.282 12.9659 16.0124 13.4697 16.4967 13.9267C16.7701 14.1493 16.8326 14.4891 16.6451 14.8485Z" fill="url(#paint0_linear_782_2149)"/>
<defs>
<linearGradient id="paint0_linear_782_2149" x1="5.14807" y1="3.47499" x2="17.1381" y2="19.9493" gradientUnits="userSpaceOnUse">
<stop stop-color="#E7B27B"/>
<stop offset="1" stop-color="#7E4C27"/>
</linearGradient>
</defs>
</svg>
